<svg xmlns="http://www.w3.org/2000/svg" viewBox="0 0 112.34 80.17"><defs><style>.cls-1{fill:#6bc8eb;}</style></defs><g id="Layer_2" data-name="Layer 2"><g id="Layer_1-2" data-name="Layer 1"><path class="cls-1" d="M61.78,14.55,77.11,0H19.66S0,4.34,0,23.23,17.62,47,17.62,47H56.68L89.87,80.17h22.47L71.23,39.06,111.06,0H90.13L58,32.17l-36.51-.26a9.49,9.49,0,0,1-5.88-9.7A6.91,6.91,0,0,1,23,15.32Z"/><path class="cls-1" d="M.45,56.3S8.68,64,18.38,64.15s42.45.38,42.45.38L77.62,80.17,20,79.67A11.75,11.75,0,0,1,16.07,79C11.28,77.26.45,71.66.45,56.3Z"/></g></g></svg>